<svg id="visual" viewBox="0 0 1190 460" width="1190" height="460" xmlns="http://www.w3.org/2000/svg" xmlns:xlink="http://www.w3.org/1999/xlink" version="1.1"><rect width="1190" height="460" fill="#BDCDAA"></rect><g><g transform="translate(998 319)"><path d="M90.9 -29.2C103.6 9.6 90 57.3 56 83.5C22.1 109.6 -32.1 114.2 -64 90.5C-95.9 66.8 -105.4 14.7 -91 -26.4C-76.6 -67.6 -38.3 -97.8 0.4 -97.9C39.1 -98 78.2 -68.1 90.9 -29.2Z" fill="#FEF5D6"></path></g><g transform="translate(641 455)"><path d="M88.2 -28C99.4 5.9 83.4 49.2 51.1 73.4C18.9 97.5 -29.5 102.4 -58.8 81.1C-88 59.8 -98 12.4 -85 -23.9C-72 -60.2 -36 -85.3 1.2 -85.7C38.5 -86.1 77 -61.8 88.2 -28Z" fill="#FEF5D6"></path></g><g transform="translate(96 70)"><path d="M84.4 -24.7C95.5 6.9 81.2 49.5 51.6 71C22 92.5 -22.9 92.9 -51.3 71.9C-79.8 50.9 -91.9 8.6 -80.6 -23.3C-69.3 -55.1 -34.6 -76.4 1 -76.7C36.6 -77 73.2 -56.3 84.4 -24.7Z" fill="#FEF5D6"></path></g></g></svg>