<svg id="visual" viewBox="0 0 1190 460" width="1190" height="460" xmlns="http://www.w3.org/2000/svg" xmlns:xlink="http://www.w3.org/1999/xlink" version="1.1"><rect width="1190" height="460" fill="#BDCDAA"></rect><g><g transform="translate(146 100)"><path d="M85.2 -28.4C96.8 8 83.2 51.9 51.6 76C20.1 100.1 -29.4 104.3 -62.9 81.3C-96.3 58.2 -113.7 7.8 -100.6 -30.7C-87.4 -69.3 -43.7 -96 -3.4 -94.9C36.8 -93.8 73.6 -64.8 85.2 -28.4Z" fill="#FEF5D6"></path></g><g transform="translate(754 222)"><path d="M72.5 -25C81.9 5.2 68.9 41.1 43.5 59.5C18.1 77.9 -19.9 78.7 -44.7 60.9C-69.6 43 -81.4 6.3 -71.8 -24.3C-62.2 -54.9 -31.1 -79.4 0.3 -79.5C31.6 -79.6 63.2 -55.2 72.5 -25Z" fill="#FEF5D6"></path></g><g transform="translate(1178 361)"><path d="M70.2 -19.8C81.6 12.3 75 53.3 49.2 73.4C23.3 93.5 -21.8 92.8 -49.9 71.7C-77.9 50.5 -89 9 -77.8 -22.7C-66.7 -54.5 -33.4 -76.5 -2 -75.8C29.4 -75.2 58.8 -51.9 70.2 -19.8Z" fill="#FEF5D6"></path></g><g transform="translate(386 364)"><path d="M78.9 -23.4C89.8 7.7 77.4 48.5 49.5 69C21.7 89.4 -21.7 89.4 -50.2 68.8C-78.7 48.1 -92.5 6.8 -81.7 -24.3C-70.8 -55.4 -35.4 -76.3 -0.7 -76.1C34.1 -75.8 68.1 -54.5 78.9 -23.4Z" fill="#FEF5D6"></path></g><g transform="translate(1114 64)"><path d="M87 -32.1C97 2.5 78.4 42.5 47.7 64.6C16.9 86.8 -26.2 91.1 -51.2 72.5C-76.2 53.8 -83.1 12.3 -71.6 -24.4C-60 -61.1 -30 -93 4.2 -94.3C38.5 -95.7 77 -66.6 87 -32.1Z" fill="#FEF5D6"></path></g></g></svg>