<svg id="visual" viewBox="0 0 1250 460" width="1250" height="460" xmlns="http://www.w3.org/2000/svg" xmlns:xlink="http://www.w3.org/1999/xlink" version="1.1"><rect x="0" y="0" width="1250" height="460" fill="#e0eae7"></rect><defs><linearGradient id="grad1_0" x1="63.2%" y1="100%" x2="100%" y2="0%"><stop offset="-4.347826086956523%" stop-color="#e0eae7" stop-opacity="1"></stop><stop offset="104.34782608695652%" stop-color="#e0eae7" stop-opacity="1"></stop></linearGradient></defs><defs><linearGradient id="grad2_0" x1="0%" y1="100%" x2="36.8%" y2="0%"><stop offset="-4.347826086956523%" stop-color="#e0eae7" stop-opacity="1"></stop><stop offset="104.34782608695652%" stop-color="#e0eae7" stop-opacity="1"></stop></linearGradient></defs><g transform="translate(1250, 460)"><path d="M-391 0C-381.7 -70 -372.4 -140 -338.6 -195.5C-304.8 -251 -246.5 -292 -186 -322.2C-125.5 -352.3 -62.7 -371.7 0 -391L0 0Z" fill="#E8DFC2"></path></g><g transform="translate(0, 0)"><path d="M391 0C378.1 66.5 365.3 132.9 334.3 193C303.3 253.1 254.2 306.7 195.5 338.6C136.8 370.5 68.4 380.8 0 391L0 0Z" fill="#E8DFC2"></path></g></svg>