<svg id="visual" viewBox="0 0 1190 460" width="1190" height="460" xmlns="http://www.w3.org/2000/svg" xmlns:xlink="http://www.w3.org/1999/xlink" version="1.1"><rect x="0" y="0" width="1190" height="460" fill="#BDCDAA"></rect><defs><linearGradient id="grad1_0" x1="61.3%" y1="100%" x2="100%" y2="0%"><stop offset="-1.7391304347826058%" stop-color="#bdcdaa" stop-opacity="1"></stop><stop offset="101.7391304347826%" stop-color="#bdcdaa" stop-opacity="1"></stop></linearGradient></defs><defs><linearGradient id="grad2_0" x1="0%" y1="100%" x2="38.7%" y2="0%"><stop offset="-1.7391304347826058%" stop-color="#bdcdaa" stop-opacity="1"></stop><stop offset="101.7391304347826%" stop-color="#bdcdaa" stop-opacity="1"></stop></linearGradient></defs><g transform="translate(1190, 460)"><path d="M-230 0C-221 -28.1 -212 -56.2 -201.4 -83.4C-190.8 -110.7 -178.6 -137.1 -159.8 -159.8C-141 -182.5 -115.7 -201.4 -88 -212.5C-60.3 -223.6 -30.1 -226.8 0 -230L0 0Z" fill="#FEF5D6"></path></g><g transform="translate(0, 0)"><path d="M230 0C221.3 28.1 212.6 56.2 202.3 83.8C192.1 111.4 180.2 138.6 161.2 161.2C142.2 183.8 116.1 201.8 88 212.5C60 223.2 30 226.6 0 230L0 0Z" fill="#FEF5D6"></path></g></svg>